<mxfile host="app.diagrams.net" modified="2023-09-24T18:42:44.579Z" agent="Mozilla/5.0 (Windows NT 10.0; Win64; x64) AppleWebKit/537.36 (KHTML, like Gecko) Chrome/116.0.0.0 Safari/537.36" etag="7pW77QeZgC5XNhYoWFVE" version="21.7.5" type="github">
  <diagram id="prtHgNgQTEPvFCAcTncT" name="Page-1">
    <mxGraphModel dx="998" dy="705" grid="1" gridSize="10" guides="1" tooltips="1" connect="1" arrows="1" fold="1" page="1" pageScale="1" pageWidth="827" pageHeight="1169" math="0" shadow="0">
      <root>
        <mxCell id="0" />
        <mxCell id="1" parent="0" />
        <mxCell id="UFWtLwlzSZ1uHZg3MW6--1" value="Organisation Chart â€“ Purpose or Function" style="swimlane;html=1;startSize=20;horizontal=1;containerType=tree;glass=0;labelBackgroundColor=none;fillColor=#09555B;strokeColor=#BAC8D3;fontColor=#EEEEEE;" vertex="1" parent="1">
          <mxGeometry x="40" y="80" width="2260" height="510" as="geometry" />
        </mxCell>
        <mxCell id="UFWtLwlzSZ1uHZg3MW6--2" style="edgeStyle=orthogonalEdgeStyle;rounded=0;orthogonalLoop=1;jettySize=auto;html=1;entryX=0.411;entryY=0.059;entryDx=0;entryDy=0;entryPerimeter=0;labelBackgroundColor=none;fontColor=default;strokeColor=#0B4D6A;" edge="1" parent="UFWtLwlzSZ1uHZg3MW6--1" source="UFWtLwlzSZ1uHZg3MW6--6" target="UFWtLwlzSZ1uHZg3MW6--7">
          <mxGeometry relative="1" as="geometry">
            <Array as="points">
              <mxPoint x="284" y="150" />
              <mxPoint x="69" y="150" />
            </Array>
          </mxGeometry>
        </mxCell>
        <mxCell id="UFWtLwlzSZ1uHZg3MW6--6" value="Managing Director" style="rounded=0;whiteSpace=wrap;html=1;labelBackgroundColor=none;fillColor=#09555B;strokeColor=#BAC8D3;fontColor=#EEEEEE;" vertex="1" parent="UFWtLwlzSZ1uHZg3MW6--1">
          <mxGeometry x="224" y="25" width="120" height="60" as="geometry" />
        </mxCell>
        <mxCell id="UFWtLwlzSZ1uHZg3MW6--19" style="edgeStyle=orthogonalEdgeStyle;rounded=0;orthogonalLoop=1;jettySize=auto;html=1;labelBackgroundColor=none;strokeColor=#0B4D6A;fontColor=default;" edge="1" parent="UFWtLwlzSZ1uHZg3MW6--1" source="UFWtLwlzSZ1uHZg3MW6--20">
          <mxGeometry relative="1" as="geometry">
            <mxPoint x="70" y="350" as="targetPoint" />
          </mxGeometry>
        </mxCell>
        <mxCell id="UFWtLwlzSZ1uHZg3MW6--26" style="edgeStyle=orthogonalEdgeStyle;rounded=0;orthogonalLoop=1;jettySize=auto;html=1;entryX=0.594;entryY=0.065;entryDx=0;entryDy=0;entryPerimeter=0;labelBackgroundColor=none;strokeColor=#0B4D6A;fontColor=default;" edge="1" parent="UFWtLwlzSZ1uHZg3MW6--1" source="UFWtLwlzSZ1uHZg3MW6--7" target="UFWtLwlzSZ1uHZg3MW6--24">
          <mxGeometry relative="1" as="geometry">
            <Array as="points">
              <mxPoint x="80" y="300" />
              <mxPoint x="461" y="300" />
            </Array>
          </mxGeometry>
        </mxCell>
        <mxCell id="UFWtLwlzSZ1uHZg3MW6--27" style="edgeStyle=orthogonalEdgeStyle;rounded=0;orthogonalLoop=1;jettySize=auto;html=1;entryX=0.635;entryY=0.013;entryDx=0;entryDy=0;entryPerimeter=0;labelBackgroundColor=none;strokeColor=#0B4D6A;fontColor=default;" edge="1" parent="UFWtLwlzSZ1uHZg3MW6--1" source="UFWtLwlzSZ1uHZg3MW6--7" target="UFWtLwlzSZ1uHZg3MW6--25">
          <mxGeometry relative="1" as="geometry">
            <Array as="points">
              <mxPoint x="80" y="300" />
              <mxPoint x="626" y="300" />
            </Array>
          </mxGeometry>
        </mxCell>
        <mxCell id="UFWtLwlzSZ1uHZg3MW6--7" value="Area A" style="rounded=0;whiteSpace=wrap;html=1;labelBackgroundColor=none;fillColor=#09555B;strokeColor=#BAC8D3;fontColor=#EEEEEE;" vertex="1" parent="UFWtLwlzSZ1uHZg3MW6--1">
          <mxGeometry x="20" y="205" width="120" height="60" as="geometry" />
        </mxCell>
        <mxCell id="UFWtLwlzSZ1uHZg3MW6--14" style="edgeStyle=orthogonalEdgeStyle;rounded=0;orthogonalLoop=1;jettySize=auto;html=1;labelBackgroundColor=none;fontColor=default;strokeColor=#0B4D6A;" edge="1" parent="UFWtLwlzSZ1uHZg3MW6--1" source="UFWtLwlzSZ1uHZg3MW6--15">
          <mxGeometry relative="1" as="geometry">
            <mxPoint x="280" y="100" as="targetPoint" />
          </mxGeometry>
        </mxCell>
        <mxCell id="UFWtLwlzSZ1uHZg3MW6--15" value="Human Resourses Management" style="rounded=0;whiteSpace=wrap;html=1;labelBackgroundColor=none;fillColor=#09555B;strokeColor=#BAC8D3;fontColor=#EEEEEE;" vertex="1" parent="UFWtLwlzSZ1uHZg3MW6--1">
          <mxGeometry x="450" y="70" width="120" height="60" as="geometry" />
        </mxCell>
        <mxCell id="UFWtLwlzSZ1uHZg3MW6--20" value="Research &amp;amp; Development" style="rounded=0;whiteSpace=wrap;html=1;labelBackgroundColor=none;fillColor=#09555B;strokeColor=#BAC8D3;fontColor=#EEEEEE;" vertex="1" parent="UFWtLwlzSZ1uHZg3MW6--1">
          <mxGeometry x="10" y="330" width="120" height="60" as="geometry" />
        </mxCell>
        <mxCell id="UFWtLwlzSZ1uHZg3MW6--21" value="" style="edgeStyle=orthogonalEdgeStyle;rounded=0;orthogonalLoop=1;jettySize=auto;html=1;labelBackgroundColor=none;strokeColor=#0B4D6A;fontColor=default;" edge="1" parent="UFWtLwlzSZ1uHZg3MW6--1" source="UFWtLwlzSZ1uHZg3MW6--7" target="UFWtLwlzSZ1uHZg3MW6--20">
          <mxGeometry relative="1" as="geometry">
            <mxPoint x="110" y="430" as="targetPoint" />
            <mxPoint x="120" y="345" as="sourcePoint" />
          </mxGeometry>
        </mxCell>
        <mxCell id="UFWtLwlzSZ1uHZg3MW6--23" value="Production" style="rounded=0;whiteSpace=wrap;html=1;labelBackgroundColor=none;fillColor=#09555B;strokeColor=#BAC8D3;fontColor=#EEEEEE;" vertex="1" parent="UFWtLwlzSZ1uHZg3MW6--1">
          <mxGeometry x="224" y="330" width="120" height="60" as="geometry" />
        </mxCell>
        <mxCell id="UFWtLwlzSZ1uHZg3MW6--22" style="edgeStyle=orthogonalEdgeStyle;rounded=0;orthogonalLoop=1;jettySize=auto;html=1;labelBackgroundColor=none;strokeColor=#0B4D6A;fontColor=default;" edge="1" parent="UFWtLwlzSZ1uHZg3MW6--1" source="UFWtLwlzSZ1uHZg3MW6--7" target="UFWtLwlzSZ1uHZg3MW6--23">
          <mxGeometry relative="1" as="geometry">
            <mxPoint x="290" y="330" as="targetPoint" />
            <Array as="points">
              <mxPoint x="80" y="300" />
              <mxPoint x="284" y="300" />
            </Array>
          </mxGeometry>
        </mxCell>
        <mxCell id="UFWtLwlzSZ1uHZg3MW6--24" value="Marketing" style="rounded=0;whiteSpace=wrap;html=1;labelBackgroundColor=none;fillColor=#09555B;strokeColor=#BAC8D3;fontColor=#EEEEEE;" vertex="1" parent="UFWtLwlzSZ1uHZg3MW6--1">
          <mxGeometry x="390" y="330" width="120" height="60" as="geometry" />
        </mxCell>
        <mxCell id="UFWtLwlzSZ1uHZg3MW6--25" value="Finance&lt;br&gt;" style="rounded=0;whiteSpace=wrap;html=1;labelBackgroundColor=none;fillColor=#09555B;strokeColor=#BAC8D3;fontColor=#EEEEEE;" vertex="1" parent="UFWtLwlzSZ1uHZg3MW6--1">
          <mxGeometry x="550" y="330" width="120" height="60" as="geometry" />
        </mxCell>
        <mxCell id="UFWtLwlzSZ1uHZg3MW6--28" style="edgeStyle=orthogonalEdgeStyle;rounded=0;orthogonalLoop=1;jettySize=auto;html=1;labelBackgroundColor=none;strokeColor=#0B4D6A;fontColor=default;" edge="1" parent="1" source="UFWtLwlzSZ1uHZg3MW6--32">
          <mxGeometry relative="1" as="geometry">
            <mxPoint x="800" y="435" as="targetPoint" />
          </mxGeometry>
        </mxCell>
        <mxCell id="UFWtLwlzSZ1uHZg3MW6--29" style="edgeStyle=orthogonalEdgeStyle;rounded=0;orthogonalLoop=1;jettySize=auto;html=1;entryX=0.594;entryY=0.065;entryDx=0;entryDy=0;entryPerimeter=0;labelBackgroundColor=none;strokeColor=#0B4D6A;fontColor=default;" edge="1" parent="1" source="UFWtLwlzSZ1uHZg3MW6--31" target="UFWtLwlzSZ1uHZg3MW6--36">
          <mxGeometry relative="1" as="geometry">
            <Array as="points">
              <mxPoint x="810" y="385" />
              <mxPoint x="1191" y="385" />
            </Array>
          </mxGeometry>
        </mxCell>
        <mxCell id="UFWtLwlzSZ1uHZg3MW6--30" style="edgeStyle=orthogonalEdgeStyle;rounded=0;orthogonalLoop=1;jettySize=auto;html=1;entryX=0.635;entryY=0.013;entryDx=0;entryDy=0;entryPerimeter=0;labelBackgroundColor=none;strokeColor=#0B4D6A;fontColor=default;" edge="1" parent="1" source="UFWtLwlzSZ1uHZg3MW6--31" target="UFWtLwlzSZ1uHZg3MW6--37">
          <mxGeometry relative="1" as="geometry">
            <Array as="points">
              <mxPoint x="810" y="385" />
              <mxPoint x="1356" y="385" />
            </Array>
          </mxGeometry>
        </mxCell>
        <mxCell id="UFWtLwlzSZ1uHZg3MW6--31" value="Area B" style="rounded=0;whiteSpace=wrap;html=1;labelBackgroundColor=none;fillColor=#09555B;strokeColor=#BAC8D3;fontColor=#EEEEEE;" vertex="1" parent="1">
          <mxGeometry x="750" y="290" width="120" height="60" as="geometry" />
        </mxCell>
        <mxCell id="UFWtLwlzSZ1uHZg3MW6--32" value="Research &amp;amp; Development" style="rounded=0;whiteSpace=wrap;html=1;labelBackgroundColor=none;fillColor=#09555B;strokeColor=#BAC8D3;fontColor=#EEEEEE;" vertex="1" parent="1">
          <mxGeometry x="740" y="415" width="120" height="60" as="geometry" />
        </mxCell>
        <mxCell id="UFWtLwlzSZ1uHZg3MW6--33" value="" style="edgeStyle=orthogonalEdgeStyle;rounded=0;orthogonalLoop=1;jettySize=auto;html=1;labelBackgroundColor=none;strokeColor=#0B4D6A;fontColor=default;" edge="1" parent="1" source="UFWtLwlzSZ1uHZg3MW6--31" target="UFWtLwlzSZ1uHZg3MW6--32">
          <mxGeometry relative="1" as="geometry">
            <mxPoint x="840" y="515" as="targetPoint" />
            <mxPoint x="850" y="430" as="sourcePoint" />
          </mxGeometry>
        </mxCell>
        <mxCell id="UFWtLwlzSZ1uHZg3MW6--34" value="Production" style="rounded=0;whiteSpace=wrap;html=1;labelBackgroundColor=none;fillColor=#09555B;strokeColor=#BAC8D3;fontColor=#EEEEEE;" vertex="1" parent="1">
          <mxGeometry x="954" y="415" width="120" height="60" as="geometry" />
        </mxCell>
        <mxCell id="UFWtLwlzSZ1uHZg3MW6--35" style="edgeStyle=orthogonalEdgeStyle;rounded=0;orthogonalLoop=1;jettySize=auto;html=1;labelBackgroundColor=none;strokeColor=#0B4D6A;fontColor=default;" edge="1" parent="1" source="UFWtLwlzSZ1uHZg3MW6--31" target="UFWtLwlzSZ1uHZg3MW6--34">
          <mxGeometry relative="1" as="geometry">
            <mxPoint x="1020" y="415" as="targetPoint" />
            <Array as="points">
              <mxPoint x="810" y="385" />
              <mxPoint x="1014" y="385" />
            </Array>
          </mxGeometry>
        </mxCell>
        <mxCell id="UFWtLwlzSZ1uHZg3MW6--36" value="Marketing" style="rounded=0;whiteSpace=wrap;html=1;labelBackgroundColor=none;fillColor=#09555B;strokeColor=#BAC8D3;fontColor=#EEEEEE;" vertex="1" parent="1">
          <mxGeometry x="1120" y="415" width="120" height="60" as="geometry" />
        </mxCell>
        <mxCell id="UFWtLwlzSZ1uHZg3MW6--37" value="Finance&lt;br&gt;" style="rounded=0;whiteSpace=wrap;html=1;labelBackgroundColor=none;fillColor=#09555B;strokeColor=#BAC8D3;fontColor=#EEEEEE;" vertex="1" parent="1">
          <mxGeometry x="1280" y="415" width="120" height="60" as="geometry" />
        </mxCell>
        <mxCell id="UFWtLwlzSZ1uHZg3MW6--38" style="edgeStyle=orthogonalEdgeStyle;rounded=0;orthogonalLoop=1;jettySize=auto;html=1;labelBackgroundColor=none;strokeColor=#0B4D6A;fontColor=default;" edge="1" parent="1" source="UFWtLwlzSZ1uHZg3MW6--42">
          <mxGeometry relative="1" as="geometry">
            <mxPoint x="1510" y="435" as="targetPoint" />
          </mxGeometry>
        </mxCell>
        <mxCell id="UFWtLwlzSZ1uHZg3MW6--39" style="edgeStyle=orthogonalEdgeStyle;rounded=0;orthogonalLoop=1;jettySize=auto;html=1;entryX=0.594;entryY=0.065;entryDx=0;entryDy=0;entryPerimeter=0;labelBackgroundColor=none;strokeColor=#0B4D6A;fontColor=default;" edge="1" parent="1" source="UFWtLwlzSZ1uHZg3MW6--41" target="UFWtLwlzSZ1uHZg3MW6--46">
          <mxGeometry relative="1" as="geometry">
            <Array as="points">
              <mxPoint x="1520" y="385" />
              <mxPoint x="1901" y="385" />
            </Array>
          </mxGeometry>
        </mxCell>
        <mxCell id="UFWtLwlzSZ1uHZg3MW6--40" style="edgeStyle=orthogonalEdgeStyle;rounded=0;orthogonalLoop=1;jettySize=auto;html=1;entryX=0.635;entryY=0.013;entryDx=0;entryDy=0;entryPerimeter=0;labelBackgroundColor=none;strokeColor=#0B4D6A;fontColor=default;" edge="1" parent="1" source="UFWtLwlzSZ1uHZg3MW6--41" target="UFWtLwlzSZ1uHZg3MW6--47">
          <mxGeometry relative="1" as="geometry">
            <Array as="points">
              <mxPoint x="1520" y="385" />
              <mxPoint x="2066" y="385" />
            </Array>
          </mxGeometry>
        </mxCell>
        <mxCell id="UFWtLwlzSZ1uHZg3MW6--41" value="Area C" style="rounded=0;whiteSpace=wrap;html=1;labelBackgroundColor=none;fillColor=#09555B;strokeColor=#BAC8D3;fontColor=#EEEEEE;" vertex="1" parent="1">
          <mxGeometry x="1460" y="290" width="120" height="60" as="geometry" />
        </mxCell>
        <mxCell id="UFWtLwlzSZ1uHZg3MW6--42" value="Research &amp;amp; Development" style="rounded=0;whiteSpace=wrap;html=1;labelBackgroundColor=none;fillColor=#09555B;strokeColor=#BAC8D3;fontColor=#EEEEEE;" vertex="1" parent="1">
          <mxGeometry x="1450" y="415" width="120" height="60" as="geometry" />
        </mxCell>
        <mxCell id="UFWtLwlzSZ1uHZg3MW6--43" value="" style="edgeStyle=orthogonalEdgeStyle;rounded=0;orthogonalLoop=1;jettySize=auto;html=1;labelBackgroundColor=none;strokeColor=#0B4D6A;fontColor=default;" edge="1" parent="1" source="UFWtLwlzSZ1uHZg3MW6--41" target="UFWtLwlzSZ1uHZg3MW6--42">
          <mxGeometry relative="1" as="geometry">
            <mxPoint x="1550" y="515" as="targetPoint" />
            <mxPoint x="1560" y="430" as="sourcePoint" />
          </mxGeometry>
        </mxCell>
        <mxCell id="UFWtLwlzSZ1uHZg3MW6--44" value="Production" style="rounded=0;whiteSpace=wrap;html=1;labelBackgroundColor=none;fillColor=#09555B;strokeColor=#BAC8D3;fontColor=#EEEEEE;" vertex="1" parent="1">
          <mxGeometry x="1664" y="415" width="120" height="60" as="geometry" />
        </mxCell>
        <mxCell id="UFWtLwlzSZ1uHZg3MW6--45" style="edgeStyle=orthogonalEdgeStyle;rounded=0;orthogonalLoop=1;jettySize=auto;html=1;labelBackgroundColor=none;strokeColor=#0B4D6A;fontColor=default;" edge="1" parent="1" source="UFWtLwlzSZ1uHZg3MW6--41" target="UFWtLwlzSZ1uHZg3MW6--44">
          <mxGeometry relative="1" as="geometry">
            <mxPoint x="1730" y="415" as="targetPoint" />
            <Array as="points">
              <mxPoint x="1520" y="385" />
              <mxPoint x="1724" y="385" />
            </Array>
          </mxGeometry>
        </mxCell>
        <mxCell id="UFWtLwlzSZ1uHZg3MW6--46" value="Marketing" style="rounded=0;whiteSpace=wrap;html=1;labelBackgroundColor=none;fillColor=#09555B;strokeColor=#BAC8D3;fontColor=#EEEEEE;" vertex="1" parent="1">
          <mxGeometry x="1830" y="415" width="120" height="60" as="geometry" />
        </mxCell>
        <mxCell id="UFWtLwlzSZ1uHZg3MW6--47" value="Finance&lt;br&gt;" style="rounded=0;whiteSpace=wrap;html=1;labelBackgroundColor=none;fillColor=#09555B;strokeColor=#BAC8D3;fontColor=#EEEEEE;" vertex="1" parent="1">
          <mxGeometry x="1990" y="415" width="120" height="60" as="geometry" />
        </mxCell>
        <mxCell id="UFWtLwlzSZ1uHZg3MW6--49" style="edgeStyle=orthogonalEdgeStyle;rounded=0;orthogonalLoop=1;jettySize=auto;html=1;entryX=0.5;entryY=0;entryDx=0;entryDy=0;labelBackgroundColor=none;strokeColor=#0B4D6A;fontColor=default;" edge="1" parent="1" source="UFWtLwlzSZ1uHZg3MW6--6" target="UFWtLwlzSZ1uHZg3MW6--31">
          <mxGeometry relative="1" as="geometry">
            <Array as="points">
              <mxPoint x="324" y="230" />
              <mxPoint x="810" y="230" />
            </Array>
          </mxGeometry>
        </mxCell>
        <mxCell id="UFWtLwlzSZ1uHZg3MW6--50" style="edgeStyle=orthogonalEdgeStyle;rounded=0;orthogonalLoop=1;jettySize=auto;html=1;entryX=0.5;entryY=0;entryDx=0;entryDy=0;strokeColor=#0B4D6A;labelBackgroundColor=none;fontColor=default;" edge="1" parent="1" source="UFWtLwlzSZ1uHZg3MW6--6" target="UFWtLwlzSZ1uHZg3MW6--41">
          <mxGeometry relative="1" as="geometry">
            <Array as="points">
              <mxPoint x="324" y="230" />
              <mxPoint x="1520" y="230" />
            </Array>
          </mxGeometry>
        </mxCell>
      </root>
    </mxGraphModel>
  </diagram>
</mxfile>
